<svg xmlns="http://www.w3.org/2000/svg" viewBox="0 0 987.94 241.61"><defs><style>.cls-1,.cls-3{fill:#17302c;}.cls-2{fill:#997b62;}.cls-3{fill-rule:evenodd;}</style></defs><g id="Layer_3" data-name="Layer 3"><path class="cls-1" d="M269.64,185.93c-11.24,0-18.43-.67-28.76-5.61l-6.29-2.92V153.8l3.82,2.26c9.43,5.61,15.73,8.76,27.41,9a38.09,38.09,0,0,0,39.09-38.87c0-23.36-14.38-40.89-39.32-41.11-1.57,0-38.86-.23-38.86,50.55V236.94H203.58V131.34c0-35.72,22.69-65.38,60.22-67C300,63,327.16,90.67,328.28,123.25,330.08,159.43,299.3,186.16,269.64,185.93Z"/><path class="cls-1" d="M399.5,183C384,183,371,181,361.76,168a39.93,39.93,0,0,1-8.32-24.72V35.4h22.92v29h39.1V87.75H376.81v51c0,7.42.45,11.24,6.29,16.18,5.84,5.17,14.38,4.5,20,4.5h13.25V183Z"/><path class="cls-1" d="M544.42,185.71c-12.81-.23-26.74-7-30.79-11.68l-3.82-4.49L506,173.36c-5.61,5.38-20,12.35-32.35,12.12-26.28-.22-43.58-20.89-43.58-48.3V64.38h23.36V143c0,13.71,15.51,22.47,22.25,22.25,9.2-.45,22.24-10.79,22.24-23.37V64.38H521.5V141c0,12.58,10.11,24,23.14,23.59,12.58-.45,21.34-11.68,21.34-24.26v-76h23.37v68.31C589.35,163,571.38,186.61,544.42,185.71Z"/><path class="cls-1" d="M709.1,183V132.24c.22-47.86-37.52-47.86-39.32-47.86-22-.67-38.87,20.45-37.52,42.47.9,20.44,16.4,35.72,37.75,37.74,13,.68,30.33-9.66,31.9-11.23v23.37c-1.57.67-21.79,9.88-36.17,8.53-31.23-3.37-58-29.2-56.39-62.91,1.56-32.35,26-60.21,62.23-58.41,37.52,1.12,60.21,30.1,60.21,60.66V183Z"/><path class="cls-1" d="M843.91,171.11c-7.41,7.63-13.93,11.23-24.72,13.26v52.57H795.6V184.81c-9.89-2.25-16.4-6.07-23.59-12.58-16-14.38-15.28-39.77-15.28-52.12V64.38h23.82v73c0,16.17,12.58,27.63,27.64,27.18,15.27-.45,25.38-11,25.38-31V64.38h23.14V141C856.71,149.31,852.67,161.9,843.91,171.11Z"/><path class="cls-1" d="M932.43,183H882.55V159.43h54.37c8.54,0,17.75.22,17.53-6.74-.9-23.15-75.5-18.43-73.7-58,1.12-22.47,18.2-30.34,36.85-30.34h53V87.75H915.13c-6.52,0-12.14,2.25-12.14,7-.22,19.1,77.07,16.62,73.92,58C975.34,173.81,960.51,183,932.43,183Z"/><polyline class="cls-2" points="150.43 10.83 177.44 10.83 177.44 37.3"/><path class="cls-3" d="M97.5,184.63q-2.25,0-4.47-.12c41-2.18,67.67-36.14,67.67-77.71A77.82,77.82,0,0,0,82.88,29C41.31,29,13.3,61.58,11.12,102.6c-.08-1.48-.11-3-.11-4.47a86.5,86.5,0,1,1,86.49,86.5Zm-3.75-59.95a23.52,23.52,0,0,1-2.8-.17,17.55,17.55,0,1,0-19.83-19.83,23.35,23.35,0,0,1-.17-2.79,22.8,22.8,0,1,1,22.8,22.79Zm70.06-89.57M91.35,48.51c-2.88-.11-6.07.75-8.84,1.41a61,61,0,0,0-19.12,8C46.55,68.87,38.17,89.79,40.91,109.49c3,21.74,19.74,40.15,41.32,44.39a56.14,56.14,0,0,0,13.75,1c20.34-1,39.23-13,46.74-32.22a65.45,65.45,0,0,0,4.09-18.21c-.23,2.6.16,5.32-.06,8A58.46,58.46,0,0,1,142,131.1c-8.41,18.91-27.83,32.18-48.32,34.15a56.86,56.86,0,0,1-7.61.21c-23.22-.92-43.21-16.3-51.66-37.69A57.74,57.74,0,0,1,38.74,77,59.6,59.6,0,0,1,91.35,48.51Z"/></g></svg>